<mxfile host="app.diagrams.net" modified="2024-02-07T14:55:25.336Z" agent="Mozilla/5.0 (Macintosh; Intel Mac OS X 10_15_7) AppleWebKit/537.36 (KHTML, like Gecko) Chrome/121.0.0.0 Safari/537.36" etag="MiUydSZnQe7vViZC812Z" version="23.1.1" type="github">
  <diagram name="Page-1" id="fJzdY1joh7IztYcajxaV">
    <mxGraphModel dx="516" dy="328" grid="1" gridSize="10" guides="1" tooltips="1" connect="1" arrows="1" fold="1" page="1" pageScale="1" pageWidth="827" pageHeight="1169" math="0" shadow="0">
      <root>
        <mxCell id="0" />
        <mxCell id="1" parent="0" />
        <mxCell id="8Ih5HfG0l-ElqbKgB-13-1" value="BankAccount" style="swimlane;fontStyle=1;align=center;verticalAlign=top;childLayout=stackLayout;horizontal=1;startSize=26;horizontalStack=0;resizeParent=1;resizeParentMax=0;resizeLast=0;collapsible=1;marginBottom=0;whiteSpace=wrap;html=1;" vertex="1" parent="1">
          <mxGeometry x="170" y="90" width="270" height="220" as="geometry" />
        </mxCell>
        <mxCell id="8Ih5HfG0l-ElqbKgB-13-2" value="-firstName: String&lt;br&gt;-lastName: String&lt;br&gt;-dateOfBirth: LocalDate&lt;br&gt;-accountNumber: int&lt;br&gt;-balance: int&lt;br&gt;-accountType: int&lt;br&gt;-overdraft: int" style="text;strokeColor=none;fillColor=none;align=left;verticalAlign=top;spacingLeft=4;spacingRight=4;overflow=hidden;rotatable=0;points=[[0,0.5],[1,0.5]];portConstraint=eastwest;whiteSpace=wrap;html=1;" vertex="1" parent="8Ih5HfG0l-ElqbKgB-13-1">
          <mxGeometry y="26" width="270" height="114" as="geometry" />
        </mxCell>
        <mxCell id="8Ih5HfG0l-ElqbKgB-13-3" value="" style="line;strokeWidth=1;fillColor=none;align=left;verticalAlign=middle;spacingTop=-1;spacingLeft=3;spacingRight=3;rotatable=0;labelPosition=right;points=[];portConstraint=eastwest;strokeColor=inherit;" vertex="1" parent="8Ih5HfG0l-ElqbKgB-13-1">
          <mxGeometry y="140" width="270" height="8" as="geometry" />
        </mxCell>
        <mxCell id="8Ih5HfG0l-ElqbKgB-13-4" value="+BankAccount(String, String, LocalDate, int)&lt;br&gt;+deposit(int): void&lt;br&gt;+withdrawal(int): void&lt;br&gt;+payInterest(): void" style="text;strokeColor=none;fillColor=none;align=left;verticalAlign=top;spacingLeft=4;spacingRight=4;overflow=hidden;rotatable=0;points=[[0,0.5],[1,0.5]];portConstraint=eastwest;whiteSpace=wrap;html=1;" vertex="1" parent="8Ih5HfG0l-ElqbKgB-13-1">
          <mxGeometry y="148" width="270" height="72" as="geometry" />
        </mxCell>
      </root>
    </mxGraphModel>
  </diagram>
</mxfile>
